<?xml version="1.0" encoding="UTF-8"?>
<svg width="141px" height="164px" viewBox="0 0 141 164" version="1.1" xmlns="http://www.w3.org/2000/svg" xmlns:xlink="http://www.w3.org/1999/xlink">
    <!-- Generator: Sketch 47 (45396) - http://www.bohemiancoding.com/sketch -->
    <title>Artboard</title>
    <desc>Created with Sketch.</desc>
    <defs>
        <path d="M32.5,0 L32.5,0 L32.5,0 C34.9852814,-4.56538782e-16 37,2.01471863 37,4.5 L37,101.5 L37,101.5 C37,103.985281 34.9852814,106 32.5,106 L32.5,106 L32.5,106 C30.0147186,106 28,103.985281 28,101.5 L28,4.5 L28,4.5 C28,2.01471863 30.0147186,4.56538782e-16 32.5,0 Z M46.5,20 C48.9852814,20 51,22.0147186 51,24.5 L51,81.5 C51,83.9852814 48.9852814,86 46.5,86 C44.0147186,86 42,83.9852814 42,81.5 L42,24.5 C42,22.0147186 44.0147186,20 46.5,20 Z M4.5,33 L4.5,33 C6.98528137,33 9,35.0147186 9,37.5 L9,68.5 L9,68.5 C9,70.9852814 6.98528137,73 4.5,73 C2.01471863,73 1.19253761e-15,70.9852814 8.8817842e-16,68.5 L0,37.5 L-8.8817842e-16,37.5 C-1.19253761e-15,35.0147186 2.01471863,33 4.5,33 L4.5,33 Z M88.5,33 C90.9852814,33 93,35.0147186 93,37.5 L93,68.5 C93,70.9852814 90.9852814,73 88.5,73 C86.0147186,73 84,70.9852814 84,68.5 L84,37.5 C84,35.0147186 86.0147186,33 88.5,33 Z M60.5,0 C62.9852814,-4.56538782e-16 65,2.01471863 65,4.5 L65,101.5 L65,101.5 C65,103.985281 62.9852814,106 60.5,106 L60.5,106 C58.0147186,106 56,103.985281 56,101.5 L56,4.5 L56,4.5 C56,2.01471863 58.0147186,4.56538782e-16 60.5,0 Z M18.5,10 C20.9852814,10 23,12.0147186 23,14.5 L23,89.5 L23,89.5 C23,91.9852814 20.9852814,94 18.5,94 C16.0147186,94 14,91.9852814 14,89.5 L14,14.5 L14,14.5 C14,12.0147186 16.0147186,10 18.5,10 Z M75.5,10 C77.9852814,10 80,12.0147186 80,14.5 L80,89.5 L80,89.5 C80,91.9852814 77.9852814,94 75.5,94 C73.0147186,94 71,91.9852814 71,89.5 L71,14.5 L71,14.5 C71,12.0147186 73.0147186,10 75.5,10 Z" id="path-1"></path>
        <linearGradient x1="0.25781251%" y1="49.7500002%" x2="101.257813%" y2="49.7500002%" id="linearGradient-3">
            <stop stop-color="#3023AE" offset="0%"></stop>
            <stop stop-color="#77B1F6" offset="47.0643335%"></stop>
            <stop stop-color="#9AFFF7" offset="100%"></stop>
        </linearGradient>
    </defs>
    <g id="Page-1" stroke="none" stroke-width="1" fill="none" fill-rule="evenodd">
        <g id="Artboard">
            <g id="Rectangle-3" transform="translate(24.000000, 4.000000)">
                <mask id="mask-2" fill="white">
                    <use xlink:href="#path-1"></use>
                </mask>
                <use id="Mask" fill="#D8D8D8" xlink:href="#path-1"></use>
                <rect fill="url(#linearGradient-3)" mask="url(#mask-2)" x="0" y="-16" width="97" height="128"></rect>
            </g>
            <text id="htmlexa" font-family="Avenir-Light, Avenir" font-size="40" font-weight="300" fill="#535353">
                <tspan x="0.26" y="154">htmlexa</tspan>
            </text>
        </g>
    </g>
</svg>